<?xml version="1.0" standalone="no"?>
<!DOCTYPE svg PUBLIC "-//W3C//DTD SVG 20010904//EN"
 "http://www.w3.org/TR/2001/REC-SVG-20010904/DTD/svg10.dtd">
<svg version="1.0" xmlns="http://www.w3.org/2000/svg"
 width="260.000000pt" height="260.000000pt" viewBox="0 0 260.000000 260.000000"
 preserveAspectRatio="xMidYMid meet">
<metadata>
Created by potrace 1.11, written by Peter Selinger 2001-2013
</metadata>
<g transform="translate(0.000000,260.000000) scale(0.100000,-0.100000)"
fill="#000000" stroke="none">
<path d="M285 1908 c-118 -15 -190 -53 -235 -125 -43 -68 -53 -128 -48 -298 4
-139 6 -154 31 -202 32 -62 57 -87 119 -119 67 -34 126 -40 380 -40 144 1 229
-3 231 -9 2 -5 2 -48 1 -95 -2 -77 -4 -86 -28 -107 -25 -21 -33 -22 -158 -18
-155 4 -357 13 -480 20 l-88 6 0 -130 0 -130 43 -5 c23 -3 87 -8 142 -12 55
-3 129 -7 165 -10 184 -11 441 -13 497 -3 92 16 160 61 203 133 l35 59 7 -38
c5 -21 15 -62 24 -91 l15 -54 178 0 177 0 39 143 c22 78 40 147 42 152 1 6 27
99 57 207 31 109 56 204 56 212 0 8 4 17 8 20 6 4 80 -238 98 -319 3 -12 103
-373 110 -397 5 -16 22 -18 183 -18 l177 0 43 158 c24 86 44 164 47 172 5 21
148 547 190 700 19 69 37 134 40 145 3 11 8 37 11 58 5 34 4 37 -18 38 -124 3
-332 -1 -337 -5 -3 -4 -7 -14 -9 -24 -1 -9 -31 -141 -67 -292 -35 -151 -73
-312 -83 -357 -17 -79 -28 -88 -38 -35 -2 10 -4 17 -5 17 -1 0 -3 9 -5 20 -2
11 -22 88 -45 170 -22 83 -52 195 -67 250 -14 55 -32 118 -39 140 -7 22 -15
57 -19 78 -5 24 -13 37 -24 38 -49 3 -283 0 -286 -3 -3 -2 -49 -172 -104 -377
-56 -206 -102 -375 -104 -377 -3 -3 -52 195 -63 251 -1 6 -9 42 -19 80 -9 39
-18 79 -21 90 -2 11 -20 91 -41 178 l-37 157 -41 1 c-329 4 -794 2 -840 -3z
m582 -271 c4 -5 72 -239 73 -254 0 -1 -21 4 -46 12 -32 9 -108 14 -254 15
-114 0 -218 3 -230 5 -43 8 -70 34 -72 68 -5 110 10 143 71 156 39 7 450 6
458 -2z"/>
</g>
</svg>
